HIERARCHY
ROOT Hips
{
  OFFSET 3.13124 94.3669 -3.18751
  CHANNELS  6 Xposition Yposition Zposition Zrotation Xrotation Yrotation
  JOINT LeftUpLeg
  {
    OFFSET 8.64259 1.95398 -2.38835
    CHANNELS 3 Zrotation Xrotation Yrotation
    JOINT LeftLeg
    {
      OFFSET 43.7702 0 0
      CHANNELS 3 Zrotation Xrotation Yrotation
      JOINT LeftFoot
      {
        OFFSET 40.6238 0 0
        CHANNELS 3 Zrotation Xrotation Yrotation
        JOINT LeftToeBase
        {
          OFFSET 12.7242 0 0
          CHANNELS 3 Zrotation Xrotation Yrotation
          End Site
          {
            OFFSET 0 0 0
          }
        }
      }
    }
  }
  JOINT RightUpLeg
  {
    OFFSET -8.2249 1.95398 -2.59336
    CHANNELS 3 Zrotation Xrotation Yrotation
    JOINT RightLeg
    {
      OFFSET 43.5653 0 0
      CHANNELS 3 Zrotation Xrotation Yrotation
      JOINT RightFoot
      {
        OFFSET 40.6238 0 0
        CHANNELS 3 Zrotation Xrotation Yrotation
        JOINT RightToeBase
        {
          OFFSET 12.7242 0 0
          CHANNELS 3 Zrotation Xrotation Yrotation
          End Site
          {
            OFFSET 0 0 0
          }
        }
      }
    }
  }
  JOINT Spine
  {
    OFFSET 0.165834 0.87714 6.61349
    CHANNELS 3 Zrotation Xrotation Yrotation
    JOINT Spine1
    {
      OFFSET 7.38962 1.71661e-005 0
      CHANNELS 3 Zrotation Xrotation Yrotation
      JOINT Spine2
      {
        OFFSET 11.9445 1.14441e-005 0
        CHANNELS 3 Zrotation Xrotation Yrotation
        JOINT Spine3
        {
          OFFSET 14.7254 4.19617e-005 0
          CHANNELS 3 Zrotation Xrotation Yrotation
          JOINT Spine4
          {
            OFFSET 10.9679 0 0
            CHANNELS 3 Zrotation Xrotation Yrotation
            JOINT RightShoulder
            {
              OFFSET 2.46616 -1.6653 3.69651
              CHANNELS 3 Zrotation Xrotation Yrotation
              JOINT RightArm
              {
                OFFSET 13.0012 0 0
                CHANNELS 3 Zrotation Xrotation Yrotation
                JOINT RightForeArm
                {
                  OFFSET 28.7848 1.52588e-005 0
                  CHANNELS 3 Zrotation Xrotation Yrotation
                  JOINT RightHand
                  {
                    OFFSET 26.5688 1.52588e-005 0
                    CHANNELS 3 Zrotation Xrotation Yrotation
                    End Site
                    {
                      OFFSET 0 0 0
                    }
                  }
                }
              }
            }
            JOINT LeftShoulder
            {
              OFFSET 2.38034 -1.29275 -3.75231
              CHANNELS 3 Zrotation Xrotation Yrotation
              JOINT LeftArm
              {
                OFFSET 16.3182 6.10352e-005 0
                CHANNELS 3 Zrotation Xrotation Yrotation
                JOINT LeftForeArm
                {
                  OFFSET 27.0901 0 0
                  CHANNELS 3 Zrotation Xrotation Yrotation
                  JOINT LeftHand
                  {
                    OFFSET 24.5451 1.52588e-005 0
                    CHANNELS 3 Zrotation Xrotation Yrotation
                    End Site
                    {
                      OFFSET 0 0 0
                    }
                  }
                }
              }
            }
            JOINT Neck
            {
              OFFSET 5.0226 -0.0266342 0
              CHANNELS 3 Zrotation Xrotation Yrotation
              JOINT Head
              {
                OFFSET 6.69363 2.86102e-005 0
                CHANNELS 3 Zrotation Xrotation Yrotation
                End Site
                {
                  OFFSET 0 0 0
                }
              }
            }
          }
        }
      }
    }
  }
}
MOTION
Frames:	10
Frame Time:	0.0333333
10.7778 99.999 26.813 85.5965 47.3191 101.98 -175.359 11.8077 88.4389 -26.5508 -45.6459 -13.4515 64.5124 11.2509 6.45278 28.7808 6.44136e-006 2.67835e-006 -178.937 23.4892 74.4723 -43.0382 15.7631 0.553899 21.8168 3.71476 5.98459 28.7808 1.40364e-005 2.62948e-005 -0.26428 6.62232 -88.592 13.6239 -0.0512572 0.112488 1.95291 -0.0462589 0.114627 -20.5822 -0.0826836 0.0918835 -0.569583 -0.0826837 0.0918794 110.465 -20.6982 -62.272 11.856 -23.4331 -4.03975 5.27045 -5.42377 -62.9983 -5.37983 -0.320005 -0.0162397 -75.7221 -20.7236 101.703 -20.1384 46.1186 22.221 77.5765 4.76309 -72.9905 47.3772 -6.05426 -17.1935 -14.0404 -31.6421 -12.9591 -14.0215 -29.0558 -27.5771 
10.9142 100.746 28.9914 89.1628 38.4376 97.9412 -174.316 12.2403 89.7664 -31.9259 -50.097 -16.7746 60.9953 8.07792 4.94882 28.7808 6.44136e-006 2.67835e-006 -178.997 21.5899 74.8079 -43.8484 16.8679 0.606871 23.2728 3.13012 5.10733 28.7808 1.40364e-005 2.62948e-005 -0.313586 6.83664 -88.3686 13.1921 -0.145653 0.0640755 1.52121 -0.142667 0.0704159 -21.014 -0.158163 0.0173408 -1.00137 -0.158173 0.0173387 111.204 -17.4844 -59.2176 8.89249 -20.1041 -3.83327 9.87202 -7.05177 -56.5582 -5.37983 -0.320005 -0.0162397 -76.6394 -19.4104 99.6666 -15.507 38.9598 21.2197 79.0759 10.1692 -75.0696 50.6296 -6.71746 -17.6192 -14.6444 -29.5952 -11.1043 -12.1628 -27.57 -26.2508 
11.0835 102.096 31.8456 91.4063 29.7571 94.6679 -171.541 14.9859 92.9543 -40.7322 -47.2382 -19.3638 52.7717 2.17479 1.39386 28.7808 6.44136e-006 2.67835e-006 -178.988 20.2907 75.5721 -43.7681 15.0876 0.473081 21.5368 3.30698 5.52399 28.7808 1.40364e-005 2.62948e-005 -0.457189 6.93722 -87.7406 12.9775 -0.270761 0.143764 1.3066 -0.264136 0.15552 -21.2288 -0.301442 0.0557343 -1.2161 -0.301438 0.0557395 111.074 -14.31 -58.0849 7.43363 -15.101 -3.3454 13.6679 -7.511 -50.0755 -5.37983 -0.320005 -0.0162397 -76.9483 -19.4812 98.945 -8.11753 30.5734 18.279 79.5113 17.2423 -78.437 51.3668 -6.2732 -16.5414 -16.3602 -26.4107 -9.09653 -10.3211 -25.0322 -24.5424 
11.4776 103.774 35.2319 92.4626 22.2077 92.0999 -167.738 17.8573 99.5477 -44.3048 -31.067 -19.0157 39.4733 -2.34492 -2.97463 28.7808 6.44136e-006 2.67835e-006 -179.644 16.4835 78.0454 -39.6306 21.154 0.902198 31.3875 3.85587 5.00763 28.7808 1.40364e-005 2.62948e-005 -0.721368 6.93717 -87.1818 12.9497 -0.697248 0.496409 1.27883 -0.674701 0.526609 -21.2575 -0.814224 0.263903 -1.2449 -0.814174 0.263907 110.925 -14.0013 -58.3232 4.56941 -7.48641 -3.23406 16.0673 -7.25798 -43.2563 -5.37983 -0.320005 -0.0162397 -77.5394 -21.3137 97.5665 0.329548 21.3933 17.947 78.5493 26.054 -82.8638 54.1907 -6.10696 -15.5292 -18.9417 -22.2441 -7.49511 -8.64082 -21.4525 -22.9245 
11.5742 104.309 38.4552 91.6844 15.4798 90.4314 -165.923 19.8828 102.785 -38.6994 -14.8473 -12.5973 33.0419 -1.20901 -2.6458 28.7808 6.44136e-006 2.67835e-006 179.372 13.4944 79.2748 -32.1252 33.6961 1.96807 39.4961 7.4457 7.4283 28.7808 1.40364e-005 2.62948e-005 -1.01415 6.76244 -87.5669 13.2936 -1.30465 0.961908 1.62283 -1.26102 1.01839 -20.9165 -1.5334 0.525288 -0.903824 -1.53339 0.525284 111.133 -13.1898 -57.3566 1.55697 2.34584 -6.25514 18.7699 -6.0371 -32.7785 -5.37983 -0.320005 -0.0162397 -77.996 -24.2894 96.579 8.69652 11.5638 18.0154 85.2728 36.368 -89.8623 50.2798 -6.32267 -16.9267 -21.0999 -18.1074 -4.79225 -6.34915 -17.8191 -21.4079 
11.1878 103.538 41.2781 90.3306 9.38194 88.7253 -166.85 20.344 105.31 -36.3175 -25.5626 -11.2128 32.1362 11.0291 10.0337 28.7808 6.44136e-006 2.67835e-006 178.779 14.2743 79.4506 -28.7759 31.0931 1.83533 46.9737 7.03001 6.02319 28.7808 1.40364e-005 2.62948e-005 -1.34847 6.60837 -88.0333 13.6077 -1.97432 1.30161 1.93754 -1.91507 1.38724 -20.608 -2.27416 0.647869 -0.595324 -2.27418 0.647872 110.623 -10.7431 -57.4662 2.62823 11.7477 -7.78809 15.9377 -4.05466 -25.112 -5.37983 -0.320005 -0.0162397 -78.2961 -26.8261 95.9941 14.6437 -3.1922 17.2606 92.3384 50.4699 -97.4854 48.8653 -6.98849 -18.6945 -19.4387 -14.6651 -2.26767 -6.41681 -14.2511 -18.5599 
10.5742 102.003 43.9074 89.6171 2.5055 86.3331 -167.469 18.6944 106.782 -26.742 -26.9276 -5.1623 16.6129 19.2322 23.5845 28.7808 6.44136e-006 2.67835e-006 178.85 17.4617 78.3218 -31.4996 20.6105 1.02597 55.688 4.73583 3.45013 28.7808 1.40364e-005 2.62948e-005 -1.53848 6.65619 -87.9243 13.5109 -2.26464 1.61431 1.8408 -2.19141 1.71243 -20.7073 -2.64504 0.85878 -0.69467 -2.64505 0.858774 110.891 -10.64 -56.6412 2.30066 17.7145 -8.77512 11.5628 -2.73757 -22.735 -5.37983 -0.320005 -0.0162397 -77.6794 -30.3691 97.2816 19.7592 -17.9142 15.7711 100.978 64.5993 -103.783 44.2357 -5.75993 -17.4709 -15.3937 -11.4327 -1.43945 -7.30518 -10.9149 -13.8049 
10.0784 99.841 46.2247 89.1315 -6.10318 83.3863 -167.2 16.0158 108.602 -20.5382 -19.4255 0.559666 9.83975 10.1883 12.8086 28.7808 6.44136e-006 2.67835e-006 179.063 20.2733 76.258 -34.7565 7.50976 0.191548 66.4607 0.970586 0.527283 28.7808 1.40364e-005 2.62948e-005 -1.6187 6.71972 -87.5883 13.3764 -2.33671 2.08068 1.70569 -2.24291 2.18149 -20.8402 -2.85393 1.28202 -0.827551 -2.85392 1.28201 110.727 -11.4805 -57.5695 1.77735 23.4618 -8.54976 8.34538 -1.95477 -19.6485 -5.37983 -0.320005 -0.0162397 -77.5434 -32.5417 97.542 23.6545 -28.2083 17.7291 120.335 74.3992 -118.237 38.0025 -3.55831 -13.7839 -10.0715 -8.18652 -1.74259 -10.176 -7.50189 -9.06025 
9.00479 97.5878 47.8961 85.3919 -13.279 79.9369 -167.797 15.854 109.046 -16.5127 -14.8351 3.94322 3.47064 5.73014 6.44373 28.7808 6.44136e-006 2.67835e-006 -178.331 31.3586 75.0378 -44.6733 3.21435 -0.181591 69.7767 0.294221 0.0998446 28.7808 1.40364e-005 2.62948e-005 -1.92863 6.55101 -87.5058 13.7007 -2.73703 2.04143 2.0308 -2.64454 2.15992 -20.5226 -3.22392 1.12399 -0.509909 -3.22391 1.12399 109.747 -9.83534 -59.5068 4.4748 27.4277 -8.09879 4.35422 -1.24556 -17.6846 -5.37983 -0.320005 -0.0162397 -75.9602 -34.359 100.471 22.4216 -34.2121 18.8472 94.4085 82.4102 -90.0646 35.6736 -1.11861 -7.37268 -3.05901 -4.55442 0.786062 -13.4973 -3.96432 -6.64653 
8.14998 96.0692 48.7813 82.5094 -17.8572 77.5033 -167.884 14.7244 109.567 -11.914 -12.8583 6.71944 -1.34175 -0.217375 -4.30153 28.7808 6.44136e-006 2.67835e-006 -176.853 37.5113 74.4036 -49.0635 1.85041 -0.323155 72.1634 0.015268 -0.0905082 28.7808 1.40364e-005 2.62948e-005 -2.28828 6.65789 -87.798 13.4927 -3.42989 1.98816 1.82448 -3.33909 2.13727 -20.7438 -3.86866 0.864266 -0.731135 -3.86865 0.864259 110.126 -11.9888 -59.5081 5.52723 29.4294 -6.54445 1.52315 -0.885396 -18.2666 -5.37983 -0.320005 -0.0162397 -75.1201 -36.2731 101.906 19.1675 -34.411 20.8434 45.936 76.9999 -42.7915 36.8532 -0.617486 -5.82786 3.23726 -1.5309 1.05348 -14.803 -1.19846 -4.41171 
